<mxfile host="app.diagrams.net" agent="Mozilla/5.0 (Windows NT 10.0; Win64; x64) AppleWebKit/537.36 (KHTML, like Gecko) Chrome/135.0.0.0 Safari/537.36" version="26.2.9">
  <diagram name="第 1 页" id="DB0ycjRuJ-ApmFEUo46l">
    <mxGraphModel dx="1182" dy="630" grid="1" gridSize="10" guides="1" tooltips="1" connect="1" arrows="1" fold="1" page="1" pageScale="1" pageWidth="827" pageHeight="1169" math="0" shadow="0">
      <root>
        <mxCell id="0" />
        <mxCell id="1" parent="0" />
        <mxCell id="ie9tIPx3IwXiRSipMjHg-1" value="1" style="whiteSpace=wrap;html=1;aspect=fixed;fillColor=#35B0AB;fontFamily=Times New Roman;" vertex="1" parent="1">
          <mxGeometry x="160" y="200" width="40" height="40" as="geometry" />
        </mxCell>
        <mxCell id="ie9tIPx3IwXiRSipMjHg-2" value="2" style="whiteSpace=wrap;html=1;aspect=fixed;fillColor=#99CC66;fontFamily=Times New Roman;" vertex="1" parent="1">
          <mxGeometry x="200" y="200" width="40" height="40" as="geometry" />
        </mxCell>
        <mxCell id="ie9tIPx3IwXiRSipMjHg-3" value="1" style="whiteSpace=wrap;html=1;aspect=fixed;fillColor=#35B0AB;fontFamily=Times New Roman;" vertex="1" parent="1">
          <mxGeometry x="280" y="200" width="40" height="40" as="geometry" />
        </mxCell>
        <mxCell id="ie9tIPx3IwXiRSipMjHg-4" value="3" style="whiteSpace=wrap;html=1;aspect=fixed;fillColor=#FAFFB8;fontFamily=Times New Roman;" vertex="1" parent="1">
          <mxGeometry x="240" y="200" width="40" height="40" as="geometry" />
        </mxCell>
        <mxCell id="ie9tIPx3IwXiRSipMjHg-5" value="2" style="whiteSpace=wrap;html=1;aspect=fixed;fillColor=#99CC66;fontFamily=Times New Roman;" vertex="1" parent="1">
          <mxGeometry x="320" y="200" width="40" height="40" as="geometry" />
        </mxCell>
        <mxCell id="ie9tIPx3IwXiRSipMjHg-6" value="3" style="whiteSpace=wrap;html=1;aspect=fixed;fillColor=#FAFFB8;fontFamily=Times New Roman;" vertex="1" parent="1">
          <mxGeometry x="360" y="200" width="40" height="40" as="geometry" />
        </mxCell>
        <mxCell id="ie9tIPx3IwXiRSipMjHg-7" value="2" style="whiteSpace=wrap;html=1;aspect=fixed;fillColor=#99CC66;fontFamily=Times New Roman;" vertex="1" parent="1">
          <mxGeometry x="160" y="320" width="40" height="40" as="geometry" />
        </mxCell>
        <mxCell id="ie9tIPx3IwXiRSipMjHg-8" value="1" style="whiteSpace=wrap;html=1;aspect=fixed;fillColor=#35B0AB;fontFamily=Times New Roman;" vertex="1" parent="1">
          <mxGeometry x="200" y="320" width="40" height="40" as="geometry" />
        </mxCell>
        <mxCell id="ie9tIPx3IwXiRSipMjHg-9" value="2" style="whiteSpace=wrap;html=1;aspect=fixed;fillColor=#99CC66;fontFamily=Times New Roman;" vertex="1" parent="1">
          <mxGeometry x="280" y="320" width="40" height="40" as="geometry" />
        </mxCell>
        <mxCell id="ie9tIPx3IwXiRSipMjHg-70" style="edgeStyle=orthogonalEdgeStyle;rounded=0;orthogonalLoop=1;jettySize=auto;html=1;exitX=0.5;exitY=0;exitDx=0;exitDy=0;endArrow=none;startFill=0;" edge="1" parent="1" source="ie9tIPx3IwXiRSipMjHg-10">
          <mxGeometry relative="1" as="geometry">
            <mxPoint x="410" y="300" as="targetPoint" />
            <Array as="points">
              <mxPoint x="260" y="300" />
            </Array>
          </mxGeometry>
        </mxCell>
        <mxCell id="ie9tIPx3IwXiRSipMjHg-10" value="3" style="whiteSpace=wrap;html=1;aspect=fixed;fillColor=#FAFFB8;fontFamily=Times New Roman;" vertex="1" parent="1">
          <mxGeometry x="240" y="320" width="40" height="40" as="geometry" />
        </mxCell>
        <mxCell id="ie9tIPx3IwXiRSipMjHg-11" value="1" style="whiteSpace=wrap;html=1;aspect=fixed;fillColor=#35B0AB;fontFamily=Times New Roman;" vertex="1" parent="1">
          <mxGeometry x="320" y="320" width="40" height="40" as="geometry" />
        </mxCell>
        <mxCell id="ie9tIPx3IwXiRSipMjHg-12" value="3" style="whiteSpace=wrap;html=1;aspect=fixed;fillColor=#FAFFB8;fontFamily=Times New Roman;" vertex="1" parent="1">
          <mxGeometry x="360" y="320" width="40" height="40" as="geometry" />
        </mxCell>
        <mxCell id="ie9tIPx3IwXiRSipMjHg-18" value="OS₁" style="text;html=1;align=center;verticalAlign=middle;resizable=0;points=[];autosize=1;strokeColor=none;fillColor=none;fontFamily=Times New Roman;" vertex="1" parent="1">
          <mxGeometry x="125" y="205" width="40" height="30" as="geometry" />
        </mxCell>
        <mxCell id="ie9tIPx3IwXiRSipMjHg-19" value="OS₂" style="text;html=1;align=center;verticalAlign=middle;resizable=0;points=[];autosize=1;strokeColor=none;fillColor=none;fontFamily=Times New Roman;" vertex="1" parent="1">
          <mxGeometry x="125" y="325" width="40" height="30" as="geometry" />
        </mxCell>
        <mxCell id="ie9tIPx3IwXiRSipMjHg-24" value="P&lt;sub&gt;1&lt;/sub&gt;&lt;span style=&quot;font-size: 10px;&quot;&gt;&amp;nbsp;(1) = {0,3}&lt;/span&gt;" style="text;html=1;align=center;verticalAlign=middle;resizable=0;points=[];autosize=1;strokeColor=none;fillColor=none;fontFamily=Times New Roman;" vertex="1" parent="1">
          <mxGeometry x="435" y="190" width="80" height="30" as="geometry" />
        </mxCell>
        <mxCell id="ie9tIPx3IwXiRSipMjHg-30" style="edgeStyle=orthogonalEdgeStyle;rounded=0;orthogonalLoop=1;jettySize=auto;html=1;exitX=0.5;exitY=0;exitDx=0;exitDy=0;fontFamily=Times New Roman;" edge="1" parent="1" source="ie9tIPx3IwXiRSipMjHg-3" target="ie9tIPx3IwXiRSipMjHg-24">
          <mxGeometry relative="1" as="geometry">
            <Array as="points">
              <mxPoint x="300" y="190" />
              <mxPoint x="420" y="190" />
              <mxPoint x="420" y="205" />
            </Array>
          </mxGeometry>
        </mxCell>
        <mxCell id="ie9tIPx3IwXiRSipMjHg-32" value="P&lt;sub&gt;2&lt;/sub&gt;&lt;span style=&quot;font-size: 10px;&quot;&gt;&amp;nbsp;(1) = {1,4}&lt;/span&gt;" style="text;html=1;align=center;verticalAlign=middle;resizable=0;points=[];autosize=1;strokeColor=none;fillColor=none;fontFamily=Times New Roman;" vertex="1" parent="1">
          <mxGeometry x="435" y="210" width="80" height="30" as="geometry" />
        </mxCell>
        <mxCell id="ie9tIPx3IwXiRSipMjHg-33" value="P&lt;sub&gt;1&lt;/sub&gt;&lt;span style=&quot;font-size: 10px;&quot;&gt;&amp;nbsp;(2) = {1,4}&lt;/span&gt;" style="text;html=1;align=center;verticalAlign=middle;resizable=0;points=[];autosize=1;strokeColor=none;fillColor=none;fontFamily=Times New Roman;" vertex="1" parent="1">
          <mxGeometry x="435" y="230" width="80" height="30" as="geometry" />
        </mxCell>
        <mxCell id="ie9tIPx3IwXiRSipMjHg-34" value="P&lt;sub&gt;2&lt;/sub&gt;&lt;span style=&quot;font-size: 10px;&quot;&gt;&amp;nbsp;(2) = {0,3}&lt;/span&gt;" style="text;html=1;align=center;verticalAlign=middle;resizable=0;points=[];autosize=1;strokeColor=none;fillColor=none;fontFamily=Times New Roman;" vertex="1" parent="1">
          <mxGeometry x="435" y="250" width="80" height="30" as="geometry" />
        </mxCell>
        <mxCell id="ie9tIPx3IwXiRSipMjHg-35" value="P&lt;sub&gt;2&lt;/sub&gt;&lt;span style=&quot;font-size: 10px;&quot;&gt;&amp;nbsp;(3) = {2,5}&lt;/span&gt;" style="text;html=1;align=center;verticalAlign=middle;resizable=0;points=[];autosize=1;strokeColor=none;fillColor=none;fontFamily=Times New Roman;" vertex="1" parent="1">
          <mxGeometry x="435" y="290" width="80" height="30" as="geometry" />
        </mxCell>
        <mxCell id="ie9tIPx3IwXiRSipMjHg-36" value="P&lt;sub&gt;1&lt;/sub&gt;&lt;span style=&quot;font-size: 10px;&quot;&gt;&amp;nbsp;(3) = {2,5}&lt;/span&gt;" style="text;html=1;align=center;verticalAlign=middle;resizable=0;points=[];autosize=1;strokeColor=none;fillColor=none;fontFamily=Times New Roman;" vertex="1" parent="1">
          <mxGeometry x="435" y="270" width="80" height="30" as="geometry" />
        </mxCell>
        <mxCell id="ie9tIPx3IwXiRSipMjHg-44" style="edgeStyle=orthogonalEdgeStyle;rounded=0;orthogonalLoop=1;jettySize=auto;html=1;exitX=0.5;exitY=0;exitDx=0;exitDy=0;entryX=-0.005;entryY=0.513;entryDx=0;entryDy=0;entryPerimeter=0;fontFamily=Times New Roman;" edge="1" parent="1" source="ie9tIPx3IwXiRSipMjHg-8" target="ie9tIPx3IwXiRSipMjHg-32">
          <mxGeometry relative="1" as="geometry">
            <Array as="points">
              <mxPoint x="220" y="310" />
              <mxPoint x="420" y="310" />
              <mxPoint x="420" y="225" />
            </Array>
          </mxGeometry>
        </mxCell>
        <mxCell id="ie9tIPx3IwXiRSipMjHg-46" style="edgeStyle=orthogonalEdgeStyle;rounded=0;orthogonalLoop=1;jettySize=auto;html=1;entryX=0;entryY=0.5;entryDx=0;entryDy=0;entryPerimeter=0;fontFamily=Times New Roman;" edge="1" parent="1" target="ie9tIPx3IwXiRSipMjHg-24">
          <mxGeometry relative="1" as="geometry">
            <mxPoint x="180" y="200" as="sourcePoint" />
            <Array as="points">
              <mxPoint x="180" y="190" />
              <mxPoint x="420" y="190" />
              <mxPoint x="420" y="205" />
            </Array>
          </mxGeometry>
        </mxCell>
        <mxCell id="ie9tIPx3IwXiRSipMjHg-47" value="D(1) = |0-1| + |3-4| = 1 + 1 = 2" style="text;whiteSpace=wrap;fontFamily=Times New Roman;" vertex="1" parent="1">
          <mxGeometry x="520" y="200" width="170" height="30" as="geometry" />
        </mxCell>
        <mxCell id="ie9tIPx3IwXiRSipMjHg-48" value="" style="shape=curlyBracket;whiteSpace=wrap;html=1;rounded=1;flipH=1;labelPosition=right;verticalLabelPosition=middle;align=left;verticalAlign=middle;fontFamily=Times New Roman;" vertex="1" parent="1">
          <mxGeometry x="510" y="205" width="10" height="20" as="geometry" />
        </mxCell>
        <mxCell id="ie9tIPx3IwXiRSipMjHg-49" value="D(2) = |1-0| + |4-3| = 1 + 1 = 2" style="text;whiteSpace=wrap;fontFamily=Times New Roman;" vertex="1" parent="1">
          <mxGeometry x="520" y="240" width="190" height="40" as="geometry" />
        </mxCell>
        <mxCell id="ie9tIPx3IwXiRSipMjHg-50" value="" style="shape=curlyBracket;whiteSpace=wrap;html=1;rounded=1;flipH=1;labelPosition=right;verticalLabelPosition=middle;align=left;verticalAlign=middle;fontFamily=Times New Roman;" vertex="1" parent="1">
          <mxGeometry x="510" y="245" width="10" height="20" as="geometry" />
        </mxCell>
        <mxCell id="ie9tIPx3IwXiRSipMjHg-51" value="" style="shape=curlyBracket;whiteSpace=wrap;html=1;rounded=1;flipH=1;labelPosition=right;verticalLabelPosition=middle;align=left;verticalAlign=middle;fontFamily=Times New Roman;" vertex="1" parent="1">
          <mxGeometry x="510" y="285" width="10" height="20" as="geometry" />
        </mxCell>
        <mxCell id="ie9tIPx3IwXiRSipMjHg-52" value="D(3) = |2-2| + |5-5| = 0 + 0 = 0" style="text;whiteSpace=wrap;fontFamily=Times New Roman;" vertex="1" parent="1">
          <mxGeometry x="520" y="280" width="190" height="40" as="geometry" />
        </mxCell>
        <mxCell id="ie9tIPx3IwXiRSipMjHg-74" style="edgeStyle=orthogonalEdgeStyle;rounded=0;orthogonalLoop=1;jettySize=auto;html=1;exitX=0.75;exitY=1;exitDx=0;exitDy=0;entryX=1;entryY=0.5;entryDx=0;entryDy=0;" edge="1" parent="1" source="ie9tIPx3IwXiRSipMjHg-53" target="ie9tIPx3IwXiRSipMjHg-56">
          <mxGeometry relative="1" as="geometry" />
        </mxCell>
        <mxCell id="ie9tIPx3IwXiRSipMjHg-53" value="D_total = D(1) + D(2) + D(3) = 2 + 2 + 0 = 4" style="text;whiteSpace=wrap;fontFamily=Times New Roman;" vertex="1" parent="1">
          <mxGeometry x="700" y="240" width="260" height="40" as="geometry" />
        </mxCell>
        <mxCell id="ie9tIPx3IwXiRSipMjHg-54" value="" style="shape=curlyBracket;whiteSpace=wrap;html=1;rounded=1;flipH=1;labelPosition=right;verticalLabelPosition=middle;align=left;verticalAlign=middle;size=0.5;fontFamily=Times New Roman;" vertex="1" parent="1">
          <mxGeometry x="690" y="212.5" width="10" height="85" as="geometry" />
        </mxCell>
        <mxCell id="ie9tIPx3IwXiRSipMjHg-56" value="&#xa;Maximum possible difference: L²/4 = 6²/4 = 9&#xa;Normalized difference: d(OS₁, OS₂) = min(1, 4/9) ≈ 0.444" style="text;whiteSpace=wrap;fontFamily=Times New Roman;" vertex="1" parent="1">
          <mxGeometry x="545" y="305" width="285" height="70" as="geometry" />
        </mxCell>
        <mxCell id="ie9tIPx3IwXiRSipMjHg-57" value="Normalization:" style="text;html=1;align=center;verticalAlign=middle;resizable=0;points=[];autosize=1;strokeColor=none;fillColor=none;fontFamily=Times New Roman;" vertex="1" parent="1">
          <mxGeometry x="435" y="325" width="100" height="30" as="geometry" />
        </mxCell>
        <mxCell id="ie9tIPx3IwXiRSipMjHg-59" value="" style="shape=curlyBracket;whiteSpace=wrap;html=1;rounded=1;labelPosition=left;verticalLabelPosition=middle;align=right;verticalAlign=middle;fontFamily=Times New Roman;" vertex="1" parent="1">
          <mxGeometry x="525" y="327.5" width="10" height="30" as="geometry" />
        </mxCell>
        <mxCell id="ie9tIPx3IwXiRSipMjHg-60" style="edgeStyle=orthogonalEdgeStyle;rounded=0;orthogonalLoop=1;jettySize=auto;html=1;exitX=0.5;exitY=1;exitDx=0;exitDy=0;entryX=0.002;entryY=0.552;entryDx=0;entryDy=0;entryPerimeter=0;" edge="1" parent="1" source="ie9tIPx3IwXiRSipMjHg-2" target="ie9tIPx3IwXiRSipMjHg-33">
          <mxGeometry relative="1" as="geometry">
            <Array as="points">
              <mxPoint x="220" y="247" />
              <mxPoint x="337" y="247" />
            </Array>
          </mxGeometry>
        </mxCell>
        <mxCell id="ie9tIPx3IwXiRSipMjHg-61" style="edgeStyle=orthogonalEdgeStyle;rounded=0;orthogonalLoop=1;jettySize=auto;html=1;exitX=0.5;exitY=1;exitDx=0;exitDy=0;entryX=0.002;entryY=0.552;entryDx=0;entryDy=0;entryPerimeter=0;" edge="1" parent="1" source="ie9tIPx3IwXiRSipMjHg-5" target="ie9tIPx3IwXiRSipMjHg-33">
          <mxGeometry relative="1" as="geometry">
            <Array as="points">
              <mxPoint x="340" y="247" />
              <mxPoint x="397" y="247" />
            </Array>
          </mxGeometry>
        </mxCell>
        <mxCell id="ie9tIPx3IwXiRSipMjHg-62" style="edgeStyle=orthogonalEdgeStyle;rounded=0;orthogonalLoop=1;jettySize=auto;html=1;exitX=0.5;exitY=0;exitDx=0;exitDy=0;entryX=0.002;entryY=0.495;entryDx=0;entryDy=0;entryPerimeter=0;" edge="1" parent="1" source="ie9tIPx3IwXiRSipMjHg-7" target="ie9tIPx3IwXiRSipMjHg-34">
          <mxGeometry relative="1" as="geometry" />
        </mxCell>
        <mxCell id="ie9tIPx3IwXiRSipMjHg-63" style="edgeStyle=orthogonalEdgeStyle;rounded=0;orthogonalLoop=1;jettySize=auto;html=1;exitX=0.5;exitY=0;exitDx=0;exitDy=0;entryX=0.002;entryY=0.514;entryDx=0;entryDy=0;entryPerimeter=0;" edge="1" parent="1" source="ie9tIPx3IwXiRSipMjHg-11" target="ie9tIPx3IwXiRSipMjHg-32">
          <mxGeometry relative="1" as="geometry">
            <Array as="points">
              <mxPoint x="340" y="310" />
              <mxPoint x="420" y="310" />
              <mxPoint x="420" y="225" />
            </Array>
          </mxGeometry>
        </mxCell>
        <mxCell id="ie9tIPx3IwXiRSipMjHg-64" style="edgeStyle=orthogonalEdgeStyle;rounded=0;orthogonalLoop=1;jettySize=auto;html=1;exitX=0.5;exitY=0;exitDx=0;exitDy=0;entryX=0.002;entryY=0.495;entryDx=0;entryDy=0;entryPerimeter=0;" edge="1" parent="1" source="ie9tIPx3IwXiRSipMjHg-9" target="ie9tIPx3IwXiRSipMjHg-34">
          <mxGeometry relative="1" as="geometry" />
        </mxCell>
        <mxCell id="ie9tIPx3IwXiRSipMjHg-65" style="edgeStyle=orthogonalEdgeStyle;rounded=0;orthogonalLoop=1;jettySize=auto;html=1;exitX=0.5;exitY=1;exitDx=0;exitDy=0;entryX=-0.012;entryY=0.514;entryDx=0;entryDy=0;entryPerimeter=0;" edge="1" parent="1" source="ie9tIPx3IwXiRSipMjHg-6" target="ie9tIPx3IwXiRSipMjHg-36">
          <mxGeometry relative="1" as="geometry" />
        </mxCell>
        <mxCell id="ie9tIPx3IwXiRSipMjHg-67" style="edgeStyle=orthogonalEdgeStyle;rounded=0;orthogonalLoop=1;jettySize=auto;html=1;exitX=0.5;exitY=1;exitDx=0;exitDy=0;entryX=-0.008;entryY=0.511;entryDx=0;entryDy=0;entryPerimeter=0;" edge="1" parent="1" source="ie9tIPx3IwXiRSipMjHg-4" target="ie9tIPx3IwXiRSipMjHg-36">
          <mxGeometry relative="1" as="geometry" />
        </mxCell>
        <mxCell id="ie9tIPx3IwXiRSipMjHg-69" style="edgeStyle=orthogonalEdgeStyle;rounded=0;orthogonalLoop=1;jettySize=auto;html=1;exitX=0.5;exitY=0;exitDx=0;exitDy=0;entryX=0.017;entryY=0.344;entryDx=0;entryDy=0;entryPerimeter=0;" edge="1" parent="1" source="ie9tIPx3IwXiRSipMjHg-12" target="ie9tIPx3IwXiRSipMjHg-35">
          <mxGeometry relative="1" as="geometry" />
        </mxCell>
      </root>
    </mxGraphModel>
  </diagram>
</mxfile>
